<?xml version="1.0" encoding="UTF-8" standalone="no"?>
<!DOCTYPE svg PUBLIC "-//W3C//DTD SVG 1.1//EN"
 "http://www.w3.org/Graphics/SVG/1.1/DTD/svg11.dtd">
<!-- Generated by graphviz version 2.38.0 (20140413.2041)
 -->
<!-- Title: G Pages: 1 -->
<svg width="182pt" height="199pt"
 viewBox="0.00 0.00 181.80 199.12" xmlns="http://www.w3.org/2000/svg" xmlns:xlink="http://www.w3.org/1999/xlink">
<g id="graph0" class="graph" transform="scale(1 1) rotate(0) translate(4 195.124)">
<title>G</title>
<polygon fill="white" stroke="none" points="-4,4 -4,-195.124 177.804,-195.124 177.804,4 -4,4"/>
<!-- n4462250060695676480 -->
<g id="node1" class="node"><title>n4462250060695676480</title>
<polygon fill="none" stroke="black" points="86.902,-191.124 0.0978617,-173.124 86.902,-155.124 173.706,-173.124 86.902,-191.124"/>
<polyline fill="none" stroke="black" points="11.8479,-175.561 11.8479,-170.687 "/>
<polyline fill="none" stroke="black" points="75.152,-157.561 98.6521,-157.561 "/>
<polyline fill="none" stroke="black" points="161.956,-170.687 161.956,-175.561 "/>
<polyline fill="none" stroke="black" points="98.6521,-188.687 75.152,-188.687 "/>
<text text-anchor="middle" x="86.902" y="-168.924" font-family="Times,serif" font-size="14.00">Finish product</text>
</g>
<!-- n556230804107508662 -->
<g id="node2" class="node"><title>n556230804107508662</title>
<polygon fill="orange" stroke="orange" points="132.44,-119.124 41.3639,-119.124 41.3639,-83.124 132.44,-83.124 132.44,-119.124"/>
<text text-anchor="middle" x="86.902" y="-96.924" font-family="Times,serif" font-size="14.00">Make Money</text>
</g>
<!-- n4462250060695676480&#45;&gt;n556230804107508662 -->
<g id="edge1" class="edge"><title>n4462250060695676480&#45;&gt;n556230804107508662</title>
<path fill="none" stroke="black" d="M86.902,-154.821C86.902,-147.107 86.902,-137.836 86.902,-129.236"/>
<polygon fill="black" stroke="black" points="90.4021,-129.228 86.902,-119.228 83.4021,-129.228 90.4021,-129.228"/>
</g>
<!-- n1205329850491816998 -->
<g id="node3" class="node"><title>n1205329850491816998</title>
<polygon fill="none" stroke="black" points="110.526,-47.1862 63.2778,-47.1862 63.2778,0.0621754 110.526,0.0621754 110.526,-47.1862"/>
<polyline fill="none" stroke="black" points="75.2778,-47.1862 63.2778,-35.1862 "/>
<polyline fill="none" stroke="black" points="63.2778,-11.9378 75.2778,0.0621754 "/>
<polyline fill="none" stroke="black" points="98.5262,0.0621754 110.526,-11.9378 "/>
<polyline fill="none" stroke="black" points="110.526,-35.1862 98.5262,-47.1862 "/>
<text text-anchor="middle" x="86.902" y="-19.362" font-family="Times,serif" font-size="14.00">Profit</text>
</g>
<!-- n556230804107508662&#45;&gt;n1205329850491816998 -->
<g id="edge2" class="edge"><title>n556230804107508662&#45;&gt;n1205329850491816998</title>
<path fill="none" stroke="black" d="M86.902,-82.9778C86.902,-75.4041 86.902,-66.2345 86.902,-57.4273"/>
<polygon fill="black" stroke="black" points="90.4021,-57.3724 86.902,-47.3724 83.4021,-57.3725 90.4021,-57.3724"/>
</g>
</g>
</svg>
