<?xml version="1.0" encoding="UTF-8" standalone="no"?>
<!DOCTYPE svg PUBLIC "-//W3C//DTD SVG 1.1//EN"
 "http://www.w3.org/Graphics/SVG/1.1/DTD/svg11.dtd">
<!-- Generated by graphviz version 2.38.0 (20140413.2041)
 -->
<!-- Title: G Pages: 1 -->
<svg width="105pt" height="188pt"
 viewBox="0.00 0.00 105.28 188.00" xmlns="http://www.w3.org/2000/svg" xmlns:xlink="http://www.w3.org/1999/xlink">
<g id="graph0" class="graph" transform="scale(1 1) rotate(0) translate(4 184)">
<title>G</title>
<polygon fill="white" stroke="none" points="-4,4 -4,-184 101.279,-184 101.279,4 -4,4"/>
<!-- n3932408252365461765 -->
<g id="node1" class="node"><title>n3932408252365461765</title>
<polygon fill="none" stroke="black" points="97.4193,-180 -0.140051,-180 -0.140051,-144 97.4193,-144 97.4193,-180"/>
<text text-anchor="middle" x="48.6396" y="-157.8" font-family="Times,serif" font-size="14.00">Finish product</text>
</g>
<!-- n2333730850667155768 -->
<g id="node2" class="node"><title>n2333730850667155768</title>
<polygon fill="none" stroke="black" points="94.1777,-108 3.10155,-108 3.10155,-72 94.1777,-72 94.1777,-108"/>
<text text-anchor="middle" x="48.6396" y="-85.8" font-family="Times,serif" font-size="14.00">Make Money</text>
</g>
<!-- n3932408252365461765&#45;&gt;n2333730850667155768 -->
<g id="edge1" class="edge"><title>n3932408252365461765&#45;&gt;n2333730850667155768</title>
<path fill="none" stroke="black" d="M48.6396,-143.697C48.6396,-135.983 48.6396,-126.712 48.6396,-118.112"/>
<polygon fill="black" stroke="black" points="52.1397,-118.104 48.6396,-108.104 45.1397,-118.104 52.1397,-118.104"/>
</g>
<!-- n2480127114587788045 -->
<g id="node3" class="node"><title>n2480127114587788045</title>
<polygon fill="none" stroke="black" points="75.6396,-36 21.6396,-36 21.6396,-0 75.6396,-0 75.6396,-36"/>
<text text-anchor="middle" x="48.6396" y="-13.8" font-family="Times,serif" font-size="14.00">Profit</text>
</g>
<!-- n2333730850667155768&#45;&gt;n2480127114587788045 -->
<g id="edge2" class="edge"><title>n2333730850667155768&#45;&gt;n2480127114587788045</title>
<path fill="none" stroke="black" d="M48.6396,-71.6966C48.6396,-63.9827 48.6396,-54.7125 48.6396,-46.1124"/>
<polygon fill="black" stroke="black" points="52.1397,-46.1043 48.6396,-36.1043 45.1397,-46.1044 52.1397,-46.1043"/>
</g>
</g>
</svg>
