<?xml version="1.0" encoding="UTF-8" standalone="no"?>
<!DOCTYPE svg PUBLIC "-//W3C//DTD SVG 1.1//EN"
 "http://www.w3.org/Graphics/SVG/1.1/DTD/svg11.dtd">
<!-- Generated by graphviz version 2.38.0 (20140413.2041)
 -->
<!-- Title: G Pages: 1 -->
<svg width="291pt" height="232pt"
 viewBox="0.00 0.00 291.10 231.80" xmlns="http://www.w3.org/2000/svg" xmlns:xlink="http://www.w3.org/1999/xlink">
<g id="graph0" class="graph" transform="scale(1 1) rotate(0) translate(4 227.8)">
<title>G</title>
<polygon fill="white" stroke="none" points="-4,4 -4,-227.8 287.1,-227.8 287.1,4 -4,4"/>
<!-- n3409616161365334014 -->
<g id="node1" class="node"><title>n3409616161365334014</title>
<polygon fill="none" stroke="black" points="98.519,-223.8 11.7149,-205.8 98.519,-187.8 185.323,-205.8 98.519,-223.8"/>
<polyline fill="none" stroke="black" points="23.4649,-208.236 23.4649,-203.363 "/>
<polyline fill="none" stroke="black" points="86.769,-190.236 110.269,-190.236 "/>
<polyline fill="none" stroke="black" points="173.573,-203.363 173.573,-208.236 "/>
<polyline fill="none" stroke="black" points="110.269,-221.363 86.769,-221.363 "/>
<text text-anchor="middle" x="98.519" y="-201.6" font-family="Times,serif" font-size="14.00">Finish product</text>
</g>
<!-- n275242065552549498 -->
<g id="node2" class="node"><title>n275242065552549498</title>
<polygon fill="yellow" stroke="yellow" points="91.0571,-151.8 -0.0190509,-151.8 -0.0190509,-115.8 91.0571,-115.8 91.0571,-151.8"/>
<text text-anchor="middle" x="45.519" y="-129.6" font-family="Times,serif" font-size="14.00">Make Money</text>
</g>
<!-- n3409616161365334014&#45;&gt;n275242065552549498 -->
<g id="edge1" class="edge"><title>n3409616161365334014&#45;&gt;n275242065552549498</title>
<path fill="none" stroke="black" d="M87.2791,-189.955C80.6796,-181.238 72.1647,-169.992 64.547,-159.931"/>
<polygon fill="black" stroke="black" points="67.2476,-157.7 58.4208,-151.84 61.6668,-161.925 67.2476,-157.7"/>
</g>
<!-- n4167000980959427836 -->
<g id="node4" class="node"><title>n4167000980959427836</title>
<polygon fill="yellow" stroke="yellow" points="194.11,-151.8 108.928,-151.8 108.928,-115.8 194.11,-115.8 194.11,-151.8"/>
<text text-anchor="middle" x="151.519" y="-129.6" font-family="Times,serif" font-size="14.00">Zero Money</text>
</g>
<!-- n3409616161365334014&#45;&gt;n4167000980959427836 -->
<g id="edge3" class="edge"><title>n3409616161365334014&#45;&gt;n4167000980959427836</title>
<path fill="none" stroke="black" d="M109.759,-189.955C116.358,-181.238 124.873,-169.992 132.491,-159.931"/>
<polygon fill="black" stroke="black" points="135.371,-161.925 138.617,-151.84 129.79,-157.7 135.371,-161.925"/>
</g>
<!-- n1947474648501868302 -->
<g id="node3" class="node"><title>n1947474648501868302</title>
<polygon fill="none" stroke="black" points="69.1432,-63.5241 21.8949,-63.5241 21.8949,-16.2757 69.1432,-16.2757 69.1432,-63.5241"/>
<polyline fill="none" stroke="black" points="33.8949,-63.5241 21.8949,-51.5241 "/>
<polyline fill="none" stroke="black" points="21.8949,-28.2757 33.8949,-16.2757 "/>
<polyline fill="none" stroke="black" points="57.1432,-16.2757 69.1432,-28.2757 "/>
<polyline fill="none" stroke="black" points="69.1432,-51.5241 57.1432,-63.5241 "/>
<text text-anchor="middle" x="45.519" y="-35.6999" font-family="Times,serif" font-size="14.00">Profit</text>
</g>
<!-- n275242065552549498&#45;&gt;n1947474648501868302 -->
<g id="edge2" class="edge"><title>n275242065552549498&#45;&gt;n1947474648501868302</title>
<path fill="none" stroke="black" d="M45.519,-115.514C45.519,-103.83 45.519,-88.0289 45.519,-73.9755"/>
<polygon fill="black" stroke="black" points="49.0191,-73.6665 45.519,-63.6665 42.0191,-73.6666 49.0191,-73.6665"/>
</g>
<!-- n3555684720681503358 -->
<g id="node5" class="node"><title>n3555684720681503358</title>
<polygon fill="none" stroke="black" points="178.319,-79.7 98.719,-79.7 98.719,-0.0998472 178.319,-0.0998472 178.319,-79.7"/>
<polyline fill="none" stroke="black" points="110.719,-79.7 98.719,-67.7 "/>
<polyline fill="none" stroke="black" points="98.719,-12.0998 110.719,-0.0998472 "/>
<polyline fill="none" stroke="black" points="166.319,-0.0998472 178.319,-12.0998 "/>
<polyline fill="none" stroke="black" points="178.319,-67.7 166.319,-79.7 "/>
<text text-anchor="middle" x="138.519" y="-42.6999" font-family="Times,serif" font-size="14.00">Work for a </text>
<text text-anchor="middle" x="138.519" y="-28.6999" font-family="Times,serif" font-size="14.00">NonProfit</text>
</g>
<!-- n4167000980959427836&#45;&gt;n3555684720681503358 -->
<g id="edge4" class="edge"><title>n4167000980959427836&#45;&gt;n3555684720681503358</title>
<path fill="none" stroke="black" d="M149.074,-115.514C148.026,-108.107 146.744,-99.0442 145.439,-89.8215"/>
<polygon fill="black" stroke="black" points="148.891,-89.2329 144.025,-79.8217 141.96,-90.2134 148.891,-89.2329"/>
</g>
<!-- n469750889727227562 -->
<g id="node6" class="node"><title>n469750889727227562</title>
<polygon fill="none" stroke="black" points="283.181,-57.8999 195.857,-57.8999 195.857,-21.8999 283.181,-21.8999 283.181,-57.8999"/>
<text text-anchor="middle" x="239.519" y="-35.6999" font-family="Times,serif" font-size="14.00">Change Jobs</text>
</g>
<!-- n4167000980959427836&#45;&gt;n469750889727227562 -->
<g id="edge5" class="edge"><title>n4167000980959427836&#45;&gt;n469750889727227562</title>
<path fill="none" stroke="black" d="M168.071,-115.514C181.592,-101.394 200.869,-81.2623 215.994,-65.4679"/>
<polygon fill="black" stroke="black" points="218.653,-67.7514 223.041,-58.1081 213.597,-62.9101 218.653,-67.7514"/>
</g>
</g>
</svg>
